
<?xml version="1.0" encoding="UTF-8"?>
<!DOCTYPE svg PUBLIC "-//W3C//DTD SVG 1.1//EN" "http://www.w3.org/Graphics/SVG/1.1/DTD/svg11.dtd">
<svg xmlns="http://www.w3.org/2000/svg" version="1.1" width="41px" height="40px" style="shape-rendering:geometricPrecision; text-rendering:geometricPrecision; image-rendering:optimizeQuality; fill-rule:evenodd; clip-rule:evenodd" xmlns:xlink="http://www.w3.org/1999/xlink">
<g><path style="opacity:0.885" fill="#fefffe" d="M 13.5,-0.5 C 17.8333,-0.5 22.1667,-0.5 26.5,-0.5C 33.2276,2.56146 37.8943,7.56146 40.5,14.5C 40.5,17.5 40.5,20.5 40.5,23.5C 38.2711,31.3966 33.2711,36.73 25.5,39.5C 24.5,39.5 23.5,39.5 22.5,39.5C 22.5,34.5 22.5,29.5 22.5,24.5C 24.1667,24.5 25.8333,24.5 27.5,24.5C 27.5,22.8333 27.5,21.1667 27.5,19.5C 25.8333,19.5 24.1667,19.5 22.5,19.5C 21.0936,14.0687 23.0936,11.7353 28.5,12.5C 28.0098,7.26348 25.3431,6.09681 20.5,9C 17.8999,11.9836 16.8999,15.4836 17.5,19.5C 15.8333,19.5 14.1667,19.5 12.5,19.5C 12.5,21.1667 12.5,22.8333 12.5,24.5C 14.1667,24.5 15.8333,24.5 17.5,24.5C 17.5,29.5 17.5,34.5 17.5,39.5C 16.5,39.5 15.5,39.5 14.5,39.5C 6.29241,36.6278 1.29241,30.9611 -0.5,22.5C -0.5,20.1667 -0.5,17.8333 -0.5,15.5C 1.66763,7.99789 6.33429,2.66456 13.5,-0.5 Z"/></g>
</svg>
